<svg xmlns="http://www.w3.org/2000/svg" width="41" height="40" viewBox="0 0 41 40" fill="none">
<rect x="0.5" width="40" height="40" rx="20" fill="#E6FFF5"/>
<mask id="mask0_24657_10050" style="mask-type:alpha" maskUnits="userSpaceOnUse" x="8" y="8" width="25" height="24">
<rect x="8.5" y="8" width="24" height="24" fill="#D9D9D9"/>
</mask>
<g mask="url(#mask0_24657_10050)">
<path d="M18.1923 29.5L17.8115 26.4538C17.5437 26.3641 17.269 26.2385 16.9875 26.077C16.7062 25.9153 16.4546 25.7422 16.2328 25.5577L13.4115 26.75L11.104 22.75L13.5443 20.9058C13.5213 20.7571 13.5049 20.6077 13.4953 20.4578C13.4856 20.3078 13.4808 20.1583 13.4808 20.0095C13.4808 19.8673 13.4856 19.7228 13.4953 19.576C13.5049 19.4292 13.5213 19.2686 13.5443 19.0943L11.104 17.25L13.4115 13.2693L16.223 14.452C16.4642 14.261 16.7216 14.0863 16.9953 13.928C17.2689 13.7697 17.5378 13.6424 17.802 13.5462L18.1923 10.5H22.8078L23.1885 13.5557C23.4885 13.6647 23.7599 13.792 24.0028 13.9375C24.2458 14.083 24.491 14.2545 24.7385 14.452L27.5885 13.2693L29.896 17.25L27.4173 19.123C27.4531 19.2845 27.4727 19.4355 27.476 19.576C27.4792 19.7163 27.4808 19.8577 27.4808 20C27.4808 20.1358 27.4775 20.274 27.471 20.4145C27.4647 20.5548 27.4417 20.7154 27.402 20.8963L29.8615 22.75L27.5538 26.75L24.7385 25.548C24.491 25.7455 24.2384 25.9202 23.9808 26.072C23.7231 26.224 23.459 26.3481 23.1885 26.4443L22.8078 29.5H18.1923ZM19.5 28H21.4655L21.825 25.3212C22.3353 25.1879 22.8017 24.9985 23.224 24.753C23.6465 24.5073 24.0539 24.1916 24.4463 23.8057L26.9308 24.85L27.9155 23.15L25.7463 21.5155C25.8296 21.2565 25.8863 21.0026 25.9163 20.7537C25.9464 20.5051 25.9615 20.2538 25.9615 20C25.9615 19.7397 25.9464 19.4884 25.9163 19.2463C25.8863 19.0039 25.8296 18.7564 25.7463 18.5038L27.9345 16.85L26.95 15.15L24.4365 16.2095C24.1018 15.8518 23.7009 15.5358 23.2338 15.2615C22.7664 14.9872 22.2937 14.7929 21.8155 14.6788L21.5 12H19.5155L19.1845 14.6693C18.6743 14.7898 18.2033 14.9743 17.7713 15.223C17.3391 15.4718 16.9268 15.7923 16.5345 16.1845L14.05 15.15L13.0655 16.85L15.225 18.4595C15.1417 18.6968 15.0833 18.9437 15.05 19.2C15.0167 19.4563 15 19.7262 15 20.0095C15 20.2698 15.0167 20.525 15.05 20.775C15.0833 21.025 15.1385 21.2718 15.2155 21.5155L13.0655 23.15L14.05 24.85L16.525 23.8C16.9045 24.1897 17.3103 24.5089 17.7423 24.7578C18.1744 25.0064 18.652 25.1974 19.175 25.3307L19.5 28ZM20.5115 23C21.3435 23 22.0515 22.708 22.6355 22.124C23.2195 21.54 23.5115 20.832 23.5115 20C23.5115 19.168 23.2195 18.46 22.6355 17.876C22.0515 17.292 21.3435 17 20.5115 17C19.6692 17 18.9586 17.292 18.3798 17.876C17.8009 18.46 17.5115 19.168 17.5115 20C17.5115 20.832 17.8009 21.54 18.3798 22.124C18.9586 22.708 19.6692 23 20.5115 23Z" fill="#383838"/>
</g>
</svg>