<svg xmlns="http://www.w3.org/2000/svg" width="41" height="40" viewBox="0 0 41 40" fill="none">
<rect x="0.5" width="40" height="40" rx="20" fill="#EBE8FD"/>
<mask id="mask0_24657_10043" style="mask-type:alpha" maskUnits="userSpaceOnUse" x="8" y="8" width="25" height="25">
<rect x="8.3999" y="8.00195" width="24" height="24" fill="#D9D9D9"/>
</mask>
<g mask="url(#mask0_24657_10043)">
<path d="M17.9999 23.2558L19.0537 22.1866L16.8691 20.0019L19.0441 17.8269L17.9903 16.7577L14.7461 20.0019L17.9999 23.2558ZM22.7999 23.2558L26.0537 20.0019L22.7999 16.7481L21.7461 17.8173L23.9307 20.0019L21.7461 22.1866L22.7999 23.2558ZM13.7076 28.5019C13.2025 28.5019 12.7749 28.3269 12.4249 27.9769C12.0749 27.6269 11.8999 27.1993 11.8999 26.6942V13.3097C11.8999 12.8045 12.0749 12.377 12.4249 12.027C12.7749 11.677 13.2025 11.502 13.7076 11.502H27.0922C27.5973 11.502 28.0249 11.677 28.3749 12.027C28.7249 12.377 28.8999 12.8045 28.8999 13.3097V26.6942C28.8999 27.1993 28.7249 27.6269 28.3749 27.9769C28.0249 28.3269 27.5973 28.5019 27.0922 28.5019H13.7076ZM13.7076 27.0019H27.0922C27.1691 27.0019 27.2396 26.9699 27.3037 26.9058C27.3678 26.8417 27.3999 26.7711 27.3999 26.6942V13.3097C27.3999 13.2327 27.3678 13.1622 27.3037 13.0981C27.2396 13.034 27.1691 13.0019 27.0922 13.0019H13.7076C13.6307 13.0019 13.5601 13.034 13.496 13.0981C13.4319 13.1622 13.3999 13.2327 13.3999 13.3097V26.6942C13.3999 26.7711 13.4319 26.8417 13.496 26.9058C13.5601 26.9699 13.6307 27.0019 13.7076 27.0019Z" fill="#383838"/>
</g>
</svg>