<svg xmlns="http://www.w3.org/2000/svg" width="41" height="40" viewBox="0 0 41 40" fill="none">
<rect x="0.5" width="40" height="40" rx="20" fill="#FFE9E8"/>
<mask id="mask0_24632_13580" style="mask-type:alpha" maskUnits="userSpaceOnUse" x="8" y="8" width="25" height="24">
<rect x="8.5" y="8" width="24" height="24" fill="#D9D9D9"/>
</mask>
<g mask="url(#mask0_24632_13580)">
<path d="M25.4421 22.3069C24.8191 22.3069 24.2884 22.0877 23.8499 21.6492C23.4114 21.2107 23.1921 20.6799 23.1921 20.0569C23.1921 19.4337 23.4114 18.9029 23.8499 18.4644C24.2884 18.0261 24.8191 17.8069 25.4421 17.8069C26.0653 17.8069 26.596 18.0261 27.0344 18.4644C27.4729 18.9029 27.6921 19.4337 27.6921 20.0569C27.6921 20.6799 27.4729 21.2107 27.0344 21.6492C26.596 22.0877 26.0653 22.3069 25.4421 22.3069ZM20.6921 27.3069V26.1569C20.6921 25.8017 20.783 25.4757 20.9646 25.1787C21.1463 24.8817 21.4042 24.668 21.7384 24.5377C22.32 24.294 22.9219 24.1112 23.5439 23.9894C24.1659 23.8677 24.7986 23.8069 25.4421 23.8069C26.0728 23.8069 26.6994 23.8677 27.3219 23.9894C27.9444 24.1112 28.5525 24.294 29.1461 24.5377C29.4803 24.668 29.7381 24.8817 29.9196 25.1787C30.1013 25.4757 30.1921 25.8017 30.1921 26.1569V27.3069H20.6921ZM18.3076 19.6914C17.3451 19.6914 16.5211 19.3487 15.8356 18.6634C15.1503 17.9779 14.8076 17.1539 14.8076 16.1914C14.8076 15.2289 15.1503 14.405 15.8356 13.7197C16.5211 13.0342 17.3451 12.6914 18.3076 12.6914C19.2701 12.6914 20.094 13.0342 20.7794 13.7197C21.4649 14.405 21.8076 15.2289 21.8076 16.1914C21.8076 17.1539 21.4649 17.9779 20.7794 18.6634C20.094 19.3487 19.2701 19.6914 18.3076 19.6914ZM10.8076 27.3069V25.0837C10.8076 24.5842 10.938 24.125 11.1989 23.7062C11.4599 23.2873 11.8179 22.9722 12.2729 22.7607C13.2152 22.2863 14.1933 21.9254 15.2071 21.6779C16.221 21.4306 17.2545 21.3069 18.3076 21.3069C18.8011 21.3069 19.2947 21.3425 19.7884 21.4137C20.2819 21.4848 20.7755 21.571 21.2691 21.6722C21.0563 21.8882 20.8435 22.1042 20.6306 22.3204L19.9921 22.9684C19.7115 22.9011 19.4307 22.8573 19.1499 22.8372C18.869 22.817 18.5883 22.8069 18.3076 22.8069C17.373 22.8069 16.4544 22.9139 15.5519 23.1279C14.6492 23.3421 13.7857 23.6658 12.9614 24.0992C12.769 24.2017 12.612 24.3359 12.4901 24.5019C12.3685 24.6681 12.3076 24.862 12.3076 25.0837V25.8069H18.3076V27.3069H10.8076ZM18.3076 18.1914C18.8576 18.1914 19.3285 17.9956 19.7201 17.6039C20.1118 17.2122 20.3076 16.7414 20.3076 16.1914C20.3076 15.6414 20.1118 15.1706 19.7201 14.7789C19.3285 14.3872 18.8576 14.1914 18.3076 14.1914C17.7576 14.1914 17.2868 14.3872 16.8951 14.7789C16.5035 15.1706 16.3076 15.6414 16.3076 16.1914C16.3076 16.7414 16.5035 17.2122 16.8951 17.6039C17.2868 17.9956 17.7576 18.1914 18.3076 18.1914Z" fill="#1C1B1F"/>
</g>
</svg>